<?xml version="1.0" encoding="UTF-8"?><svg id="Lager_2" xmlns="http://www.w3.org/2000/svg" viewBox="0 0 145 145"><g id="Lager_1-2"><g><path d="M144.31,62.49c.46,3.27,.69,6.61,.69,10.01,0,21.32-9.21,40.5-23.87,53.76-.82-.8-1.57-1.65-2.25-2.55l-6.35-10.11c4.93-5.79,9.16-10.93,12.68-15.43,6.91-8.83,11.8-16.08,14.65-21.76,2.66-5.17,4.14-9.81,4.45-13.92Z" style="fill:#d1d5db;"/><path d="M144.31,62.49c-.31,4.11-1.79,8.75-4.45,13.92-2.85,5.68-7.74,12.93-14.65,21.76-3.52,4.5-7.75,9.64-12.68,15.43l6.35,10.11c.68,.9,1.43,1.75,2.25,2.55-2.99,2.71-6.22,5.18-9.64,7.36-2.89,1.86-5.93,3.51-9.09,4.94-9.11,4.14-19.24,6.44-29.9,6.44-.54,0-1.08-.01-1.62-.02l5.22-5.79,4.48-4.97,7.22-8c1.69-1.92,3.32-3.8,4.89-5.64l-27.82-44.23-25.26,34.57v26.2c-7.17-3.65-13.65-8.46-19.19-14.19l-.03-.03v-22.06c.14-6.49-.15-11.29-.89-14.39s-2.06-5.17-3.98-6.2c-1.91-1.03-4.64-1.48-8.18-1.33-1.99,0-4.34-.02-7.06-.07-.19-2.09-.28-4.21-.28-6.35,0-1.4,.04-2.78,.12-4.16,3.66-.3,7.39-.98,11.2-2.04,5.46-1.47,10.24-3.02,14.37-4.65,4.27-1.77,7-2.88,8.18-3.32s2.43-.44,3.76,0c1.32,.3,1.98,1.85,1.98,4.65v33.96l20.67-28.01L27.09,15.99c5.9-4.75,12.55-8.59,19.76-11.31-.3,.61-.44,1.29-.44,2.04,0,1.17,.88,3.19,2.64,6.05l24.02,38.19L102.08,10.33c.59-1,.92-2.2,.97-3.59,2.92,1.36,5.74,2.91,8.43,4.64l-22.95,32.09c3.27-2.5,6.71-4.53,10.32-6.1,4.95-2.25,9.83-3.37,14.64-3.37,9.32,0,16.75,2.47,22.31,7.4,1.65,1.43,3.07,2.99,4.23,4.68,2.04,5.2,3.49,10.7,4.28,16.41Zm-23.83,18.4c2.7-5.68,4.06-10.62,4.06-14.8,0-5.39-1.51-9.58-4.51-12.57-3.01-2.99-7.14-4.49-12.4-4.49s-10.14,1.8-15.09,5.39c-3.91,2.83-7.36,6.46-10.34,10.88l24.1,38.38c.78-1.03,1.52-2.04,2.24-3.04,5.4-7.48,9.39-14.06,11.94-19.75Z"/><path d="M140.03,46.08c-1.16-1.69-2.58-3.25-4.23-4.68-5.56-4.93-12.99-7.4-22.31-7.4-4.81,0-9.69,1.12-14.64,3.37-3.61,1.57-7.05,3.6-10.32,6.1L111.48,11.38c12.84,8.19,22.93,20.33,28.55,34.7Z" style="fill:#d1d5db;"/><path d="M124.54,66.09c0,4.18-1.36,9.12-4.06,14.8-2.55,5.69-6.54,12.27-11.94,19.75-.72,1-1.46,2.01-2.24,3.04l-24.1-38.38c2.98-4.42,6.43-8.05,10.34-10.88,4.95-3.59,9.99-5.39,15.09-5.39s9.39,1.5,12.4,4.49c3,2.99,4.51,7.18,4.51,12.57Z" style="fill:#d1d5db;"/><path d="M103.05,6.74c-.05,1.39-.38,2.59-.97,3.59l-29.01,40.63L49.05,12.77c-1.76-2.86-2.64-4.88-2.64-6.05,0-.75,.14-1.43,.44-2.04h0C54.82,1.65,63.47,0,72.5,0c10.92,0,21.27,2.41,30.55,6.74Z" style="fill:#d1d5db;"/><path d="M64.87,76.35l27.82,44.23c-1.57,1.84-3.2,3.72-4.89,5.64l-7.22,8-4.48,4.97-5.22,5.79c-9.62-.21-18.78-2.3-27.13-5.92-1.41-.6-2.79-1.25-4.14-1.94v-26.2l25.26-34.57Z" style="fill:#d1d5db;"/><path d="M27.09,15.99l33.19,52.94-20.67,28.01V62.98c0-2.8-.66-4.35-1.98-4.65-1.33-.44-2.58-.44-3.76,0s-3.91,1.55-8.18,3.32c-4.13,1.63-8.91,3.18-14.37,4.65-3.81,1.06-7.54,1.74-11.2,2.04C1.31,47.19,11.58,28.46,27.09,15.99Z" style="fill:#d1d5db;"/><path d="M20.42,122.93l-.03,.05v-.08l.03,.03Z" style="fill:#1e1e1e;"/><path d="M19.5,86.45c.74,3.1,1.03,7.9,.89,14.39v22.06C9.15,111.28,1.76,95.91,.28,78.85c2.72,.05,5.07,.07,7.06,.07,3.54-.15,6.27,.3,8.18,1.33,1.92,1.03,3.24,3.1,3.98,6.2Z" style="fill:#d1d5db;"/></g></g></svg>